<svg width="245" height="223" viewBox="0 0 245 223" fill="none" xmlns="http://www.w3.org/2000/svg">
<path d="M86.1191 88.1036C85.9083 89.5791 81.9498 84.6874 81.7231 84.367C75.5978 75.7071 71.6846 65.741 69.8538 55.3093C67.0515 39.3411 68.2543 17.6467 83.3057 7.61242C92.9659 1.17224 107.778 3.77343 115.265 12.0084C123.516 21.0848 126.088 33.2841 128.848 44.8467C130.91 53.4816 132.684 62.2223 132.805 71.1349C132.826 72.7204 133.208 75.0211 132.761 76.586C131.632 80.5369 137.562 69.915 140.058 66.651C149.141 54.7738 164.054 41.2481 180.282 46.737C193.538 51.2206 204.276 62.552 203.053 77.0256C202.294 86.0095 196.589 91.1669 190.217 96.8077C184.786 101.615 179.551 106.665 173.16 110.216C170.098 111.917 166.768 112.84 163.665 114.392C161.178 115.635 159.555 117.659 157.335 119.139C156.562 119.655 164.207 119.755 164.984 119.755C174.385 119.755 183.705 119.601 192.942 121.689C206.087 124.661 226.878 129.969 235.232 141.999C240.226 149.189 244.051 163.595 236.463 170.221C226.632 178.806 210.107 176.727 198.13 176.727C190.255 176.727 181.571 175.86 175.183 170.793C170.144 166.797 166.449 162.36 162.082 157.737C160.41 155.965 161.342 158.449 161.247 160.242C160.851 167.776 158.932 174.966 156.06 181.915C150.514 195.333 141.167 207.593 128.233 214.533C122.434 217.645 112.681 220.104 106.077 218.49C102.394 217.589 102.042 212.042 101.549 209.082C100.327 201.75 100.362 194.467 100.362 187.058C100.362 179.526 100.17 171.812 101.769 164.419C102.251 162.187 101.8 161.492 99.6589 162.66C85.8322 170.202 70.4419 173.435 55.0393 175.892C39.5552 178.362 21.0884 183.616 8.7052 171.232C1.84407 164.371 2.79946 153.575 9.54044 146.834C20.1516 136.223 38.217 132.335 52.4016 129.69C56.2445 128.973 60.1491 128.668 63.9632 127.844C65.3864 127.536 67.6294 128.205 65.5457 126.701C50.6883 115.97 30.5278 111.12 25.6299 90.8291C23.9257 83.769 27.3459 77.8052 33.1031 73.8605C39.4864 69.4868 44.9419 69.1128 52.4896 69.1128C62.2572 69.1128 65.539 74.53 72.8431 79.3994C75.7989 81.37 78.6941 83.2482 80.9318 86.1254C82.0339 87.5423 82.3456 90.5689 83.7453 91.2687" stroke="#161617" stroke-width="8" stroke-linecap="round"/>
<path d="M84.1979 120.025C84.1979 117.876 83.9396 115.423 85.0499 113.48C87.427 109.32 92.4954 107.867 96.9393 107.826C101.521 107.783 104.709 107.97 108.519 110.692C110.245 111.924 111.654 113.324 113.127 114.797" stroke="#161617" stroke-width="8" stroke-linecap="round"/>
<path d="M125.675 106.432C125.675 98.5128 134.562 95.5233 141.282 95.6267C146.382 95.7051 148.051 99.5295 151.119 102.598" stroke="#161617" stroke-width="8" stroke-linecap="round"/>
<path d="M108.597 130.481C109.794 130.601 110.88 131.245 111.966 131.721C114.6 132.876 117.278 133.944 120.079 134.625C124.729 135.756 129.475 135.628 133.963 133.967C137.71 132.581 139.655 130.54 141.147 126.841C141.998 124.733 142.202 121.899 143.451 120.025" stroke="#161617" stroke-width="8" stroke-linecap="round"/>
</svg>
